<?xml version="1.0" encoding="utf-8"?>
<!-- Generator: Adobe Illustrator 14.0.0, SVG Export Plug-In . SVG Version: 6.00 Build 43363)  -->
<!DOCTYPE svg PUBLIC "-//W3C//DTD SVG 1.1//EN" "http://www.w3.org/Graphics/SVG/1.1/DTD/svg11.dtd">
<svg version="1.1" id="レイヤー_1" xmlns="http://www.w3.org/2000/svg" xmlns:xlink="http://www.w3.org/1999/xlink" x="0px"
	 y="0px" width="240.084px" height="62.404px" viewBox="0 0 240.084 62.404" enable-background="new 0 0 240.084 62.404"
	 xml:space="preserve">
<g>
	
		<line fill="none" stroke="#211819" stroke-width="0" stroke-linecap="round" stroke-linejoin="round" x1="171.668" y1="38.561" x2="171.68" y2="38.561"/>
	
		<line fill="none" stroke="#211819" stroke-width="0" stroke-linecap="round" stroke-linejoin="round" x1="165.488" y1="38.821" x2="165.488" y2="38.815"/>
	<path fill="#211819" d="M171.668,38.561h-5.936c-0.135,0-0.244,0.11-0.244,0.244v0.011c0,0.125,0.075,0.235,0.191,0.278
		c0.53,0.194,1.97-0.079,1.97,1.464v10.911c0,0.793-0.352,1.354-1.962,1.505c-0.126,0.013-0.223,0.117-0.223,0.243v0.037
		c0,0.135,0.109,0.244,0.244,0.244h6.354c0.134,0,0.244-0.109,0.244-0.244v-0.033c0-0.126-0.101-0.232-0.228-0.243
		c-1.748-0.14-2.1-0.681-2.1-1.509v-3.953l0.004,3.955v-3.962h1.524c2.276,0,4.008-0.481,5.147-1.433
		c1.189-0.994,1.44-2.252,1.44-3.133C178.097,39.32,174.601,38.561,171.668,38.561z M171.668,46.808h-1.684V39.19h1.752
		c3.287,0,3.73,1.874,3.73,3.708C175.467,45.419,174.846,46.808,171.668,46.808z"/>
	<path id="XMLID_32_" fill="#211819" d="M198.137,52.817c-0.041-0.106-0.151-0.166-0.26-0.142l-0.033,0.01
		c-0.322,0.068-0.569,0.05-0.743-0.067c-0.245-0.167-0.365-0.542-0.365-1.147v-5.477c0-2.14-1.276-3.225-3.792-3.225
		c-2.254,0-4.02,1.066-4.02,2.43c0,0.699,0.426,1.205,1.057,1.281c0.411,0.05,0.805-0.137,1.09-0.438
		c0.553-0.586,0.482-1.28-0.19-2.027c0.397-0.415,1.102-0.66,1.904-0.66c1.308,0,1.866,0.774,1.866,2.593v1.384
		c-0.307,0.096-0.594,0.186-1.118,0.309c-1.06,0.248-2.513,0.578-3.608,1.186c-0.904,0.494-1.363,1.277-1.363,2.326
		c0,1.141,0.749,2.474,2.86,2.474c1.182,0,2.241-0.561,3.327-1.763c0.094,1.25,0.568,1.717,1.717,1.717
		c0.553,0,0.995-0.128,1.521-0.382C198.127,53.129,198.195,52.963,198.137,52.817z M194.65,51.144
		c-0.258,0.356-1.096,1.421-2.14,1.421c-1.411,0-1.708-0.99-1.708-1.822c0-1.365,1.047-1.998,3.848-2.688V51.144z"/>
	<path id="XMLID_29_" fill="#211819" d="M221.701,53.672c-2.99,0-5.246-2.344-5.246-5.451c0-3.043,2.354-5.52,5.246-5.52
		c2.93,0,5.225,2.385,5.225,5.429C226.926,51.553,224.213,53.672,221.701,53.672z M221.59,43.286c-1.293,0-2.777,0.556-2.777,4.89
		c0,3.305,0.975,4.911,2.982,4.911c1.918,0,2.773-1.515,2.773-4.911C224.568,44.886,223.594,43.286,221.59,43.286z"/>
	<path id="XMLID_26_" fill="#211819" d="M182.906,42.696c-2.766,0-5.017,2.505-5.017,5.583c0,3.117,2.11,5.379,5.017,5.379
		c2.443,0,3.631-1.46,4.313-2.558c0.066-0.107,0.037-0.251-0.066-0.325l-0.033-0.023c-0.105-0.074-0.251-0.054-0.332,0.049
		c-0.898,1.125-1.685,1.777-3.042,1.777c-1.718,0-3.552-1.184-3.552-4.503v-0.024c-0.003-0.146,0.001-0.348,0.006-0.535h7.024
		c0.019,0,0.036-0.016,0.036-0.035l0.004-0.056c0.1-1.361-0.285-2.585-1.084-3.444C185.398,43.141,184.266,42.696,182.906,42.696z
		 M180.238,46.816c0.231-2.271,1.117-3.517,2.51-3.517c0.697,0,1.213,0.192,1.578,0.589c0.501,0.545,0.714,1.53,0.629,2.928H180.238
		z"/>
	<path id="XMLID_25_" fill="#211819" d="M212.023,46.939l-0.002-0.002c-1.922-0.539-2.67-1.084-2.67-1.945
		c0-0.98,0.778-1.692,1.852-1.692c1.262,0,1.803,0.603,3.135,2.83l0.018,0.03c0.006,0.012,0.018,0.018,0.031,0.018h0.184
		c0.133,0,0.244-0.109,0.244-0.244v-3.201c0-0.02-0.018-0.036-0.037-0.036h-0.242c-0.072,0-0.141,0.032-0.188,0.09l-0.427,0.517
		c-0.535-0.295-1.41-0.606-2.288-0.606c-2.205,0-3.746,1.364-3.746,3.315c0,1.834,1.215,2.521,3.313,3.086
		c2.039,0.559,2.762,1.14,2.762,2.219c0,1.198-1.162,1.738-1.987,1.738c-1.535,0-2.184-0.57-3.655-3.213l-0.018-0.032
		c-0.006-0.012-0.018-0.02-0.031-0.02h-0.184c-0.136,0-0.244,0.11-0.244,0.245v3.586c0,0.021,0.016,0.037,0.036,0.037h0.249
		c0.064,0,0.127-0.026,0.173-0.072l0.673-0.672c0.787,0.488,1.965,0.744,2.729,0.744c1.148,0,2.092-0.363,2.73-1.052
		c0.568-0.613,0.881-1.481,0.881-2.446C215.313,48.49,214.42,47.617,212.023,46.939z"/>
	<path id="XMLID_24_" fill="#211819" d="M200.398,52.211c0,0.553-0.141,0.734-1.021,0.789c-0.128,0.009-0.228,0.115-0.228,0.244
		c0,0.134,0.108,0.242,0.242,0.242h4.348c0.133,0,0.24-0.106,0.24-0.239c0-0.13-0.102-0.236-0.231-0.243
		c-1.006-0.049-1.267-0.211-1.267-0.793v-6.375c0.716-1.189,1.23-1.813,2.099-2.001c-0.042,0.149-0.071,0.331-0.071,0.477
		c0,0.774,0.542,1.315,1.316,1.315c0.761,0,1.292-0.541,1.292-1.315c0-0.732-0.457-1.587-1.747-1.587
		c-1.057,0-2.066,0.605-2.934,2.056v-1.64c0-0.168-0.138-0.302-0.305-0.298l-2.74,0.073c-0.132,0.004-0.236,0.11-0.236,0.244v0.034
		c0,0.121,0.088,0.225,0.203,0.239c0.913,0.13,1.039,0.564,1.039,1.016V52.211z"/>
	<path id="XMLID_23_" fill="#211819" d="M230.463,42.836c0.064,0,0.123,0.024,0.17,0.068c0.047,0.047,0.074,0.108,0.074,0.174
		l0.01,1.818c0,0,0.893-2.132,3.787-2.132h0.025c1.805,0,2.84,1.151,2.84,3.157v6.277c0,0.555,0.141,0.734,1.021,0.791
		c0.127,0.008,0.227,0.114,0.227,0.242c0,0.135-0.107,0.244-0.242,0.244h-3.906c-0.135,0-0.244-0.109-0.244-0.244
		c0-0.13,0.098-0.237,0.223-0.248c0.709-0.06,0.824-0.239,0.824-0.785v-5.666c0-1.87-0.531-2.599-1.898-2.599
		c-0.922,0-1.678,0.806-2.148,1.48c0,0-0.242,0.302-0.502,0.87l0.027,5.914c0,0.545,0.111,0.724,0.801,0.785
		c0.123,0.011,0.223,0.117,0.223,0.242c0,0.141-0.111,0.25-0.244,0.25h-3.883c-0.133,0-0.242-0.109-0.242-0.244
		c0-0.128,0.1-0.234,0.229-0.243c0.879-0.056,1.02-0.237,1.02-0.79v-7.75c0-0.451-0.125-0.889-1.043-1.02
		c-0.117-0.016-0.205-0.119-0.205-0.24v-0.035c0-0.134,0.104-0.24,0.238-0.244L230.463,42.836z"/>
</g>
<g>
	<rect y="7.778" fill="#231815" width="69.561" height="0.5"/>
	<rect x="170.523" y="7.778" fill="#231815" width="69.561" height="0.5"/>
	<g>
		<path fill="#231815" d="M80.53,14.491h-0.941V3.168h0.941v1.427h0.031c0.136-0.261,0.311-0.496,0.525-0.706
			c0.214-0.208,0.449-0.382,0.706-0.518c0.256-0.136,0.52-0.24,0.792-0.314c0.271-0.073,0.539-0.109,0.8-0.109
			c0.659,0,1.217,0.109,1.677,0.329s0.84,0.521,1.137,0.901c0.299,0.382,0.515,0.834,0.65,1.357
			c0.136,0.523,0.205,1.082,0.205,1.678c0,0.564-0.073,1.108-0.22,1.631c-0.146,0.523-0.368,0.98-0.666,1.372
			c-0.299,0.393-0.674,0.706-1.129,0.941c-0.454,0.235-0.992,0.353-1.608,0.353c-0.575,0-1.127-0.128-1.654-0.384
			c-0.528-0.256-0.944-0.636-1.247-1.137V14.491z M80.53,7.261c0,0.46,0.062,0.896,0.188,1.31c0.125,0.413,0.305,0.774,0.541,1.083
			c0.235,0.308,0.522,0.554,0.862,0.737c0.34,0.183,0.724,0.274,1.153,0.274c0.481,0,0.901-0.096,1.263-0.29
			c0.36-0.194,0.656-0.458,0.886-0.792c0.229-0.334,0.397-0.723,0.501-1.167s0.146-0.923,0.125-1.436
			c0-0.512-0.07-0.964-0.211-1.357c-0.141-0.391-0.337-0.724-0.588-0.995c-0.251-0.272-0.543-0.479-0.878-0.62
			c-0.334-0.142-0.7-0.211-1.098-0.211c-0.438,0-0.831,0.089-1.176,0.266c-0.345,0.178-0.633,0.421-0.863,0.729
			c-0.23,0.309-0.405,0.675-0.525,1.098C80.59,6.313,80.53,6.77,80.53,7.261z"/>
		<path fill="#231815" d="M93.125,6.556c0.177-0.021,0.389-0.053,0.635-0.094c0.245-0.042,0.447-0.1,0.604-0.173
			c0.157-0.073,0.253-0.196,0.29-0.369s0.055-0.332,0.055-0.478c0-0.481-0.155-0.876-0.463-1.184
			c-0.308-0.309-0.828-0.463-1.561-0.463c-0.324,0-0.622,0.029-0.894,0.086c-0.272,0.058-0.509,0.157-0.713,0.297
			c-0.205,0.142-0.372,0.33-0.502,0.565c-0.13,0.235-0.216,0.531-0.259,0.886H89.36c0.032-0.481,0.141-0.892,0.33-1.231
			c0.188-0.34,0.431-0.617,0.729-0.832c0.297-0.213,0.643-0.371,1.035-0.471c0.393-0.099,0.808-0.148,1.247-0.148
			c0.409,0,0.792,0.045,1.154,0.133c0.36,0.089,0.673,0.23,0.94,0.423c0.267,0.194,0.477,0.453,0.628,0.777
			c0.151,0.324,0.227,0.722,0.227,1.192v4.422c0,0.366,0.065,0.599,0.196,0.698c0.13,0.099,0.394,0.076,0.792-0.07v0.737
			c-0.073,0.021-0.18,0.052-0.321,0.094c-0.141,0.042-0.28,0.063-0.416,0.063c-0.147,0-0.288-0.016-0.424-0.047
			c-0.157-0.021-0.282-0.07-0.376-0.149c-0.095-0.079-0.17-0.173-0.228-0.282c-0.057-0.11-0.097-0.23-0.117-0.362
			c-0.021-0.13-0.032-0.269-0.032-0.415c-0.397,0.439-0.853,0.774-1.365,1.004c-0.512,0.23-1.066,0.345-1.662,0.345
			c-0.355,0-0.698-0.047-1.028-0.141c-0.328-0.094-0.619-0.24-0.87-0.438c-0.251-0.199-0.45-0.442-0.596-0.729
			c-0.146-0.287-0.219-0.63-0.219-1.027c0-1.38,0.946-2.196,2.839-2.447L93.125,6.556z M94.708,7.025
			c-0.397,0.168-0.8,0.277-1.208,0.33c-0.408,0.053-0.815,0.094-1.223,0.125c-0.721,0.052-1.283,0.214-1.686,0.486
			c-0.403,0.272-0.603,0.685-0.603,1.238c0,0.251,0.049,0.468,0.148,0.651c0.1,0.183,0.231,0.335,0.393,0.455
			c0.162,0.121,0.35,0.21,0.564,0.267c0.213,0.058,0.431,0.087,0.65,0.087c0.377,0,0.742-0.047,1.099-0.141
			c0.354-0.094,0.671-0.238,0.948-0.432c0.277-0.193,0.5-0.438,0.667-0.737c0.167-0.298,0.251-0.65,0.251-1.059V7.025z"/>
		<path fill="#231815" d="M99.549,11.292h-0.94V3.168h0.94v1.521h0.032c0.261-0.648,0.598-1.1,1.012-1.357
			c0.413-0.255,0.958-0.384,1.639-0.384v1.019c-0.533-0.01-0.972,0.074-1.317,0.251c-0.346,0.178-0.62,0.418-0.824,0.721
			c-0.203,0.303-0.345,0.661-0.423,1.074c-0.078,0.413-0.118,0.844-0.118,1.294V11.292z"/>
		<path fill="#231815" d="M107.482,11.322c-0.115,0.021-0.267,0.058-0.455,0.11c-0.188,0.052-0.397,0.078-0.627,0.078
			c-0.471,0-0.828-0.118-1.074-0.353c-0.246-0.235-0.369-0.656-0.369-1.263V3.952h-1.145V3.168h1.145V0.909h0.941v2.259h1.522v0.784
			h-1.522V9.52c0,0.198,0.005,0.371,0.016,0.517c0.01,0.147,0.042,0.267,0.094,0.361c0.052,0.094,0.134,0.163,0.243,0.204
			c0.11,0.042,0.264,0.063,0.463,0.063c0.125,0,0.253-0.01,0.384-0.032c0.131-0.02,0.259-0.047,0.384-0.078V11.322z"/>
		<path fill="#231815" d="M110.387,11.292h-0.941V3.168h0.941v1.129c0.376-0.397,0.765-0.722,1.168-0.973
			c0.403-0.25,0.886-0.376,1.45-0.376c0.502,0,0.967,0.086,1.396,0.259c0.428,0.172,0.79,0.474,1.082,0.901
			c0.198,0.293,0.316,0.593,0.353,0.902c0.037,0.309,0.055,0.63,0.055,0.964v5.316h-0.941V5.991c0-0.732-0.163-1.281-0.486-1.647
			c-0.324-0.366-0.863-0.548-1.615-0.548c-0.293,0-0.56,0.044-0.8,0.133c-0.24,0.088-0.457,0.206-0.65,0.353
			c-0.194,0.146-0.359,0.313-0.495,0.501c-0.135,0.188-0.239,0.388-0.313,0.596c-0.094,0.262-0.151,0.512-0.173,0.753
			c-0.021,0.24-0.031,0.501-0.031,0.784V11.292z"/>
		<path fill="#231815" d="M119.167,7.449c0,0.439,0.057,0.855,0.172,1.248c0.115,0.391,0.285,0.731,0.51,1.019
			c0.225,0.288,0.51,0.517,0.854,0.69c0.346,0.172,0.743,0.259,1.192,0.259c0.616,0,1.145-0.162,1.584-0.486s0.73-0.784,0.878-1.38
			h1.052c-0.117,0.387-0.268,0.745-0.455,1.074c-0.189,0.33-0.424,0.617-0.706,0.863c-0.282,0.246-0.617,0.437-1.004,0.572
			c-0.388,0.137-0.837,0.204-1.349,0.204c-0.648,0-1.208-0.109-1.678-0.329c-0.471-0.22-0.857-0.52-1.161-0.902
			s-0.528-0.831-0.674-1.349c-0.147-0.517-0.22-1.074-0.22-1.67c0-0.596,0.087-1.155,0.259-1.678
			c0.172-0.523,0.418-0.98,0.737-1.372c0.318-0.393,0.708-0.701,1.168-0.926c0.46-0.225,0.982-0.337,1.568-0.337
			c1.119,0,1.996,0.384,2.635,1.152c0.638,0.769,0.951,1.885,0.941,3.348H119.167z M124.469,6.665c0-0.397-0.055-0.771-0.166-1.121
			c-0.109-0.351-0.271-0.654-0.485-0.91c-0.215-0.256-0.483-0.46-0.808-0.612s-0.695-0.227-1.113-0.227s-0.787,0.078-1.105,0.235
			c-0.319,0.157-0.591,0.366-0.815,0.627c-0.225,0.261-0.406,0.564-0.541,0.91c-0.136,0.345-0.225,0.711-0.267,1.098H124.469z"/>
		<path fill="#231815" d="M128.709,11.292h-0.941V3.168h0.941v1.521h0.031c0.261-0.648,0.598-1.1,1.012-1.357
			c0.412-0.255,0.959-0.384,1.639-0.384v1.019c-0.533-0.01-0.973,0.074-1.316,0.251c-0.346,0.178-0.62,0.418-0.824,0.721
			c-0.203,0.303-0.345,0.661-0.424,1.074c-0.078,0.413-0.117,0.844-0.117,1.294V11.292z"/>
		<path fill="#231815" d="M133.918,8.751c0.145,0.7,0.41,1.194,0.791,1.481c0.383,0.288,0.928,0.432,1.639,0.432
			c0.346,0,0.645-0.041,0.895-0.125c0.251-0.084,0.457-0.196,0.619-0.337s0.285-0.301,0.369-0.479
			c0.083-0.178,0.125-0.366,0.125-0.564c0-0.398-0.128-0.693-0.384-0.887c-0.257-0.193-0.577-0.346-0.964-0.455
			c-0.389-0.11-0.807-0.204-1.256-0.283c-0.449-0.078-0.867-0.196-1.254-0.353c-0.388-0.157-0.709-0.381-0.965-0.674
			c-0.256-0.292-0.385-0.706-0.385-1.239c0-0.68,0.249-1.236,0.746-1.671c0.495-0.433,1.199-0.65,2.109-0.65
			c0.878,0,1.591,0.196,2.14,0.588c0.549,0.392,0.882,1.048,0.996,1.968h-0.956c-0.084-0.628-0.322-1.07-0.713-1.326
			c-0.393-0.256-0.888-0.383-1.482-0.383c-0.597,0-1.052,0.127-1.365,0.383c-0.313,0.256-0.471,0.594-0.471,1.012
			c0,0.366,0.129,0.646,0.385,0.839s0.577,0.351,0.964,0.471c0.388,0.12,0.806,0.227,1.255,0.321s0.867,0.228,1.254,0.4
			c0.389,0.173,0.709,0.405,0.965,0.698c0.257,0.293,0.385,0.7,0.385,1.224c0,0.386-0.084,0.729-0.25,1.027
			c-0.168,0.298-0.398,0.547-0.691,0.745c-0.293,0.199-0.641,0.348-1.043,0.447s-0.844,0.149-1.325,0.149
			c-0.48,0-0.906-0.07-1.277-0.211s-0.688-0.337-0.948-0.588c-0.263-0.251-0.467-0.543-0.612-0.878
			c-0.147-0.335-0.229-0.695-0.251-1.082H133.918z"/>
		<path fill="#231815" d="M141.635,11.292V0h0.941v4.297c0.377-0.397,0.765-0.722,1.168-0.973c0.402-0.25,0.886-0.376,1.451-0.376
			c0.502,0,0.967,0.086,1.395,0.259c0.43,0.172,0.79,0.474,1.083,0.901c0.198,0.293,0.315,0.593,0.354,0.902
			c0.036,0.309,0.054,0.63,0.054,0.964v5.316h-0.941V5.991c0-0.732-0.162-1.281-0.485-1.647c-0.323-0.366-0.862-0.548-1.616-0.548
			c-0.291,0-0.559,0.044-0.799,0.133c-0.24,0.088-0.457,0.206-0.65,0.353c-0.195,0.146-0.359,0.313-0.494,0.501
			c-0.137,0.188-0.24,0.388-0.314,0.596c-0.094,0.262-0.151,0.512-0.172,0.753c-0.021,0.24-0.031,0.501-0.031,0.784v4.375H141.635z"
			/>
		<path fill="#231815" d="M150.762,1.396V0h1.035v1.396H150.762z M150.809,11.292V3.168h0.941v8.124H150.809z"/>
		<path fill="#231815" d="M155.496,14.491h-0.941V3.168h0.941v1.427h0.032c0.136-0.261,0.31-0.496,0.524-0.706
			c0.215-0.208,0.45-0.382,0.705-0.518c0.258-0.136,0.521-0.24,0.793-0.314c0.271-0.073,0.538-0.109,0.8-0.109
			c0.659,0,1.218,0.109,1.679,0.329c0.459,0.22,0.838,0.521,1.137,0.901c0.298,0.382,0.514,0.834,0.65,1.357
			s0.203,1.082,0.203,1.678c0,0.564-0.072,1.108-0.219,1.631c-0.146,0.523-0.368,0.98-0.666,1.372
			c-0.299,0.393-0.675,0.706-1.129,0.941c-0.455,0.235-0.992,0.353-1.607,0.353c-0.576,0-1.127-0.128-1.656-0.384
			c-0.527-0.256-0.942-0.636-1.246-1.137V14.491z M155.496,7.261c0,0.46,0.063,0.896,0.188,1.31s0.306,0.774,0.541,1.083
			s0.522,0.554,0.862,0.737c0.34,0.183,0.725,0.274,1.153,0.274c0.48,0,0.901-0.096,1.263-0.29c0.359-0.194,0.655-0.458,0.885-0.792
			c0.23-0.334,0.397-0.723,0.502-1.167s0.146-0.923,0.127-1.436c0-0.512-0.072-0.964-0.213-1.357
			c-0.141-0.391-0.336-0.724-0.588-0.995c-0.251-0.272-0.543-0.479-0.879-0.62c-0.334-0.142-0.699-0.211-1.097-0.211
			c-0.439,0-0.832,0.089-1.177,0.266c-0.346,0.178-0.633,0.421-0.863,0.729c-0.229,0.309-0.404,0.675-0.524,1.098
			C155.557,6.313,155.496,6.77,155.496,7.261z"/>
	</g>
</g>
<g id="XMLID_246_">
	<path id="XMLID_250_" fill="#0089B8" d="M153.692,31.925c6.884,3.922,8.486,12.715,3.696,21.614
		c-4.209,7.82-13.4,11.161-20.249,7.18c-6.85-3.983-8.187-15.094-5.243-21.486C136.17,29.948,146.087,27.591,153.692,31.925"/>
	<path id="XMLID_247_" fill="#FFFFFF" d="M153.533,38.673c1.347,1.438,1.766,3.621,1.532,5.411
		c-0.268,2.042-1.505,3.932-3.563,5.185c-1.633,0.993-3.776,1.39-5.887,1.407c-0.018,0.336-0.084,1.487-0.117,1.67
		c-0.05,0.269-0.144,0.414-0.26,0.564c-0.226,0.295-0.619,0.486-1.01,0.598c-0.31,0.088-0.617,0.126-0.834,0.126
		c-0.037,0-0.072-0.002-0.108-0.007c-0.229-0.025-0.484-0.135-0.642-0.309c-0.158-0.176-0.246-0.398-0.268-0.65l-0.018-0.228
		c-0.045-0.196-0.289-10.116-0.242-9.939c0.036-1.189,1.955-1.396,2.997-1.187c1.042,0.211,0.778,1.479,0.751,3.035
		c0,0-0.05,2.051-0.146,4.217c1.328-0.053,2.384-0.432,3.371-0.922c1.996-0.988,3.052-2.506,3.052-4.74
		c0-2.233-2.177-4.736-6.188-4.736s-5.732,1.013-7.676,2.619c-0.438,0.363-0.775,0.729-1.094,0.969
		c-0.32,0.24-1.166,0.277-1.395-0.285c-0.273-0.678,0.238-1.435,0.538-1.8c0.473-0.575,1.636-1.731,2.926-2.403
		c1.478-0.771,3.285-1.602,5.802-1.666c2.275-0.057,5.869,0.128,8.459,3.052 M144.831,55.099c-0.21-0.164-0.446-0.276-0.683-0.323
		c-0.081-0.016-0.164-0.024-0.245-0.024c-0.448,0-0.888,0.246-1.174,0.661c-0.241,0.343-0.339,0.754-0.274,1.152
		c0.041,0.254,0.135,0.475,0.275,0.639c0.158,0.186,0.4,0.328,0.698,0.414c0.173,0.047,0.351,0.072,0.528,0.072l0,0
		c0.387,0,0.734-0.115,1.004-0.334c0.314-0.257,0.485-0.622,0.481-1.027C145.438,55.854,145.209,55.395,144.831,55.099"/>
</g>
<g>
	<polygon fill="#0062AE" points="22.689,36.257 19.014,49.972 14.491,36.257 8.262,36.257 2.59,57.418 7.736,57.418 7.759,57.418 
		7.765,57.418 11.7,42.721 16.528,57.418 22.179,57.418 22.186,57.418 27.856,36.257 	"/>
	<polygon fill="#0062AE" points="96.475,36.257 90.804,57.418 95.971,57.418 101.643,36.257 	"/>
	<polygon fill="#0062AE" points="30.953,36.257 25.282,57.418 30.45,57.418 36.122,36.257 	"/>
	<polygon fill="#0062AE" points="78.181,36.257 72.637,56.946 68.558,46.049 66.956,46.049 66.952,46.049 76.631,36.257 
		70.529,36.257 61.497,45.241 63.905,36.257 58.736,36.257 53.16,57.063 49.04,46.049 47.438,46.049 47.434,46.049 57.112,36.257 
		51.011,36.257 41.978,45.241 44.386,36.257 39.218,36.257 33.547,57.418 33.652,57.418 38.678,57.418 38.715,57.418 41.762,46.049 
		43.59,46.049 47.31,57.418 58.197,57.418 58.234,57.418 61.281,46.049 63.109,46.049 66.829,57.418 87.687,57.418 88.838,53.123 
		78.829,53.123 80.007,48.73 88.813,48.73 89.867,44.795 81.062,44.795 82.197,40.557 92.061,40.557 93.214,36.257 	"/>
</g>
</svg>
