<svg width="292" height="54" viewBox="0 0 292 54" fill="none" xmlns="http://www.w3.org/2000/svg">
<path d="M91.9322 44.8297L85.1522 37.1797H83.9922V47.0597H85.3522V39.4997L92.0322 47.0597H93.1922V37.1797H91.9322V44.8297Z" fill="white"/>
<path d="M96.6823 37.1797H95.3223V47.1597H96.6823V37.1797Z" fill="white"/>
<path d="M106.36 37.1797H104.62L100.45 41.6397V37.1797H99V47.0597H100.45V42.1197L105.59 47.0597H107.43L102.1 41.8297L106.36 37.1797Z" fill="white"/>
<path d="M115.661 37.1807H113.921L109.661 41.6407V37.1807H108.211V47.0607H109.661V42.1207L114.801 47.0607H116.641L111.311 41.8307L115.671 37.1807H115.661Z" fill="white"/>
<path d="M119.151 42.7007H123.221V41.4407H119.151V38.4407H123.321V37.1807H117.701V47.0607H123.511V45.8007H119.151V42.7007Z" fill="white"/>
<path d="M126.421 37.1797H125.061V47.1597H126.421V37.1797Z" fill="white"/>
<path d="M137.171 41.8307C138.091 41.5207 138.711 40.6707 138.721 39.7007C138.741 39.2607 138.641 38.8307 138.431 38.4407C138.171 38.0507 137.801 37.7507 137.361 37.5707C136.751 37.3007 136.081 37.2007 135.421 37.2807H132.711V47.1607H136.101C136.731 47.1607 137.361 47.0307 137.941 46.7807C138.391 46.5407 138.781 46.2107 139.101 45.8107C139.391 45.4207 139.521 44.9407 139.491 44.4507C139.491 43.8307 139.251 43.2407 138.811 42.8007C138.401 42.2807 137.811 41.9307 137.161 41.8307H137.171ZM134.171 38.4407H135.431C136.691 38.4407 137.271 38.9207 137.271 39.8907C137.261 40.3207 137.081 40.7407 136.791 41.0507C136.311 41.3707 135.721 41.5107 135.141 41.4407H134.171V38.4407ZM137.851 45.1307C137.671 45.3707 137.441 45.5707 137.171 45.7107C136.671 45.8607 136.141 45.9207 135.621 45.9007H134.261V42.6107H135.521C136.041 42.5907 136.571 42.6607 137.071 42.8007C137.371 42.9407 137.631 43.1407 137.841 43.3807C138.021 43.6007 138.121 43.8707 138.131 44.1607C138.031 44.5507 137.941 44.8407 137.841 45.1307H137.851Z" fill="white"/>
<path d="M147.832 42.8004C147.832 43.3604 147.772 43.9104 147.642 44.4504C147.502 44.7504 147.302 45.0104 147.062 45.2304C146.012 45.9704 144.662 46.1204 143.472 45.6204C143.082 45.3304 142.702 45.1404 142.502 44.7504C142.212 44.4604 142.212 43.7804 142.212 42.8104V37.1904H140.762V42.8104C140.762 43.4304 140.832 44.0504 140.952 44.6504C141.062 44.9804 141.192 45.3004 141.342 45.6204C141.502 45.9004 141.702 46.1604 141.922 46.4004C143.782 47.6904 146.262 47.6904 148.122 46.4004C148.362 46.2204 148.562 45.9904 148.702 45.7204C148.892 45.4204 149.022 45.0904 149.092 44.7504C149.232 44.1804 149.292 43.5904 149.282 43.0104V37.3904H147.832V42.8204V42.8004Z" fill="white"/>
<path d="M154.521 41.7307L153.451 41.0507C152.971 40.7607 152.681 40.4707 152.381 40.2707C152.171 40.0707 152.071 39.7807 152.091 39.4907C152.121 39.1907 152.261 38.9207 152.481 38.7107C152.811 38.4607 153.231 38.3507 153.641 38.4207C154.531 38.4207 155.381 38.8107 155.961 39.4907V37.7507C155.291 37.2507 154.471 36.9807 153.631 36.9807C152.851 36.9707 152.091 37.2407 151.501 37.7607C150.971 38.2207 150.691 38.9007 150.731 39.6007C150.761 40.0807 150.891 40.5407 151.121 40.9607C151.541 41.4507 152.031 41.8707 152.571 42.2207L153.641 42.9007C154.511 43.4807 154.901 44.0607 154.901 44.6407C154.901 44.9707 154.751 45.2907 154.511 45.5107C154.191 45.7907 153.771 45.9307 153.351 45.9007C152.281 45.8407 151.291 45.3107 150.641 44.4507V46.2907C151.431 46.8607 152.381 47.1707 153.351 47.1607C154.101 47.1707 154.831 46.8907 155.391 46.3807C155.941 45.8907 156.221 45.1707 156.161 44.4407C156.351 43.3807 155.671 42.5007 154.511 41.7307H154.521Z" fill="white"/>
<path d="M159.27 37.1797H157.91V47.1597H159.27V37.1797Z" fill="white"/>
<path d="M169.442 44.8307L162.762 37.1807H161.602V47.0607H162.962V39.5007L169.552 47.0607H170.812V37.1807H169.452V44.8307H169.442Z" fill="white"/>
<path d="M174.282 42.7007H178.352V41.4407H174.282V38.4407H178.542V37.1807H172.922V47.0607H178.732V45.8007H174.272V42.7007H174.282Z" fill="white"/>
<path d="M183.491 41.7307L182.421 41.0507C181.941 40.7607 181.651 40.4707 181.351 40.2707C181.141 40.0707 181.041 39.7807 181.061 39.4907C181.091 39.1907 181.231 38.9207 181.451 38.7107C181.781 38.4607 182.201 38.3507 182.611 38.4207C183.501 38.4207 184.351 38.8107 184.931 39.4907V37.7507C184.261 37.2507 183.441 36.9807 182.601 36.9807C181.821 36.9707 181.061 37.2407 180.471 37.7607C179.941 38.2207 179.661 38.9007 179.701 39.6007C179.731 40.0807 179.861 40.5407 180.091 40.9607C180.511 41.4507 181.001 41.8707 181.541 42.2207L182.611 42.9007C183.481 43.4807 183.871 44.0607 183.871 44.6407C183.871 44.9707 183.721 45.2907 183.481 45.5107C183.161 45.7907 182.741 45.9307 182.321 45.9007C181.251 45.8407 180.261 45.3107 179.611 44.4507V46.2907C180.401 46.8607 181.351 47.1707 182.321 47.1607C183.071 47.1707 183.801 46.8907 184.361 46.3807C184.911 45.8907 185.191 45.1707 185.131 44.4407C185.321 43.3807 184.651 42.5007 183.481 41.7307H183.491Z" fill="white"/>
<path d="M190.171 41.7307L189.101 41.0507C188.621 40.7607 188.331 40.4707 188.031 40.2707C187.821 40.0707 187.721 39.7807 187.741 39.4907C187.771 39.1907 187.911 38.9207 188.131 38.7107C188.461 38.4607 188.881 38.3507 189.291 38.4207C190.181 38.4207 191.031 38.8107 191.611 39.4907V37.7507C190.941 37.2507 190.121 36.9807 189.281 36.9807C188.501 36.9707 187.741 37.2407 187.151 37.7607C186.621 38.2207 186.341 38.9007 186.381 39.6007C186.411 40.0807 186.541 40.5407 186.771 40.9607C187.191 41.4507 187.681 41.8707 188.221 42.2207L189.291 42.9007C190.161 43.4807 190.551 44.0607 190.551 44.6407C190.551 44.9707 190.401 45.2907 190.161 45.5107C189.841 45.7907 189.421 45.9307 189.001 45.9007C187.931 45.8407 186.941 45.3107 186.291 44.4507V46.2907C187.081 46.8607 188.031 47.1707 189.001 47.1607C189.751 47.1707 190.481 46.8907 191.041 46.3807C191.591 45.8907 191.871 45.1707 191.811 44.4407C191.841 43.2907 191.191 42.2307 190.161 41.7307H190.171Z" fill="white"/>
<path d="M200.831 41.7307L199.761 41.0507C199.281 40.7607 198.991 40.4707 198.691 40.2707C198.481 40.0707 198.381 39.7807 198.401 39.4907C198.431 39.1907 198.571 38.9207 198.791 38.7107C199.121 38.4607 199.541 38.3507 199.951 38.4207C200.841 38.4207 201.691 38.8107 202.271 39.4907V37.7507C201.601 37.2507 200.781 36.9807 199.941 36.9807C199.161 36.9707 198.401 37.2407 197.811 37.7607C197.281 38.2207 197.001 38.9007 197.041 39.6007C197.071 40.0807 197.201 40.5407 197.431 40.9607C197.851 41.4507 198.341 41.8707 198.881 42.2207L199.951 42.9007C200.821 43.4807 201.211 44.0607 201.211 44.6407C201.211 44.9707 201.061 45.2907 200.821 45.5107C200.501 45.7907 200.081 45.9307 199.661 45.9007C198.591 45.8407 197.601 45.3107 196.951 44.4507V46.2907C197.741 46.8607 198.691 47.1707 199.661 47.1607C200.411 47.1707 201.141 46.8907 201.701 46.3807C202.251 45.8907 202.531 45.1707 202.471 44.4407C202.761 43.3807 202.081 42.5007 200.821 41.7307H200.831Z" fill="white"/>
<path d="M206.452 44.8299C204.952 43.3999 204.892 41.0299 206.322 39.5299C206.362 39.4899 206.412 39.4399 206.452 39.3999C207.202 38.6699 208.222 38.2899 209.262 38.3299C210.462 38.3199 211.642 38.6599 212.652 39.2999V37.7499C211.562 37.2399 210.372 36.9699 209.162 36.9699C207.732 36.9299 206.342 37.4499 205.282 38.4199C204.252 39.3599 203.682 40.7099 203.732 42.0999C203.752 42.9799 203.982 43.8499 204.412 44.6199C204.872 45.3699 205.502 45.9999 206.252 46.4599C207.122 46.8999 208.082 47.1299 209.062 47.1399C210.302 47.1399 211.522 46.8799 212.652 46.3599V44.8099C211.632 45.5399 210.412 45.9399 209.162 45.9699C208.152 45.8899 207.202 45.4799 206.452 44.8099V44.8299Z" fill="white"/>
<path d="M221.562 41.4407H216.042V37.1807H214.592V47.0607H216.042V42.7007H221.562V47.0607H223.012V37.1807H221.562V41.4407Z" fill="white"/>
<path d="M230.09 36.9901C228.66 36.9501 227.27 37.4701 226.21 38.4401C225.24 39.4201 224.72 40.7501 224.76 42.1201C224.72 43.4701 225.25 44.7701 226.21 45.7001C227.22 46.6801 228.58 47.2101 229.99 47.1501C231.42 47.1901 232.81 46.6701 233.87 45.7001C235.9 43.7101 235.94 40.4601 233.96 38.4201C233.93 38.3901 233.9 38.3601 233.87 38.3301C232.83 37.4101 231.48 36.9301 230.09 36.9701V36.9901ZM232.9 44.7401C231.3 46.1601 228.88 46.1601 227.28 44.7401C226.56 44.0301 226.17 43.0401 226.21 42.0301C226.13 41.0101 226.52 40.0101 227.28 39.3201C228.02 38.5801 229.04 38.1901 230.09 38.2501C231.1 38.2001 232.09 38.5901 232.8 39.3201C233.55 40.0201 233.97 41.0101 233.96 42.0301C234.02 43.0501 233.63 44.0401 232.89 44.7401H232.9Z" fill="white"/>
<path d="M242.111 36.9903C240.681 36.9503 239.291 37.4703 238.231 38.4403C237.261 39.4203 236.741 40.7503 236.781 42.1203C236.741 43.4703 237.271 44.7703 238.231 45.7003C239.241 46.6803 240.601 47.2103 242.011 47.1503C243.441 47.1903 244.831 46.6703 245.891 45.7003C247.921 43.7103 247.961 40.4603 245.981 38.4203C245.951 38.3903 245.921 38.3603 245.891 38.3303C244.841 37.4303 243.491 36.9503 242.111 36.9703V36.9903ZM244.821 44.7403C243.221 46.1603 240.801 46.1603 239.201 44.7403C238.481 44.0303 238.091 43.0403 238.131 42.0303C238.051 41.0103 238.441 40.0103 239.201 39.3203C239.941 38.5803 240.961 38.1903 242.011 38.2503C243.021 38.2003 244.011 38.5903 244.721 39.3203C245.471 40.0203 245.891 41.0103 245.881 42.0303C246.031 43.0603 245.621 44.0903 244.811 44.7403H244.821Z" fill="white"/>
<path d="M250.532 37.1807H249.172V47.0607H255.082V45.8007H250.532V37.1807Z" fill="white"/>
<path d="M100.551 8.11035H83.6914V26.5204H100.551V8.11035ZM98.1314 24.2904H86.1114V18.3804H98.1214V24.2904H98.1314ZM98.1314 16.1504H86.1114V10.4304H98.1214V16.1504H98.1314Z" fill="white"/>
<path d="M269.722 15.9609H252.572V18.6709H269.722V15.9609Z" fill="white"/>
<path d="M274.272 14.6004C274.082 18.9604 273.982 21.7704 271.072 24.1004V27.3004C276.592 24.5904 276.882 19.0604 276.882 14.1204V8.40039H274.272V14.6004Z" fill="white"/>
<path d="M289.392 16.1603C288.812 18.5803 288.422 22.3603 283.092 23.2303V7.82031H280.572V26.8103C285.032 26.1303 290.072 25.8403 291.812 16.1503H289.392V16.1603Z" fill="white"/>
<path d="M158.882 16.2509V13.7309C155.392 13.6309 152.972 13.6309 150.742 13.6309V15.9509C153.162 16.1409 155.102 16.0509 158.882 16.2409V16.2509Z" fill="white"/>
<path d="M158.882 11.41V8.89004C155.392 8.79004 152.972 8.79004 150.742 8.79004V11.11C153.162 11.21 155.102 11.11 158.882 11.4V11.41Z" fill="white"/>
<path d="M151.42 26.7205C166.24 25.5605 166.44 22.4605 168.76 12.4805H165.95C163.91 21.8805 163.43 23.0405 151.51 24.0105V26.7205H151.41H151.42Z" fill="white"/>
<path d="M208.192 26.9101H211.682C210.192 24.3301 208.362 21.9501 206.252 19.8401C207.702 17.3201 208.572 13.8301 208.772 9.08008H193.762V11.5001H205.392C204.622 18.3801 203.552 22.1601 193.672 24.3901V27.1001C198.712 25.8401 202.202 24.3901 204.622 21.8701C206.102 23.3301 207.312 25.0301 208.202 26.9101H208.192Z" fill="white"/>
<path d="M231.643 26.9101C230.153 24.3301 228.323 21.9501 226.213 19.8401C227.663 17.3201 228.533 13.8301 228.733 9.08008H213.723V11.5001H225.353C224.583 18.3801 223.513 22.1601 213.633 24.3901V27.1001C218.673 25.8401 222.163 24.3901 224.583 21.8701C225.933 23.3901 227.073 25.0901 227.973 26.9101H231.653H231.643Z" fill="white"/>
<path d="M239.882 11.4102H247.532C246.272 20.2302 245.492 23.0402 234.742 24.3002V27.1102C248.592 25.5602 249.182 21.0102 251.022 8.99023H237.842C236.582 12.2802 236.102 12.6702 233.582 14.4202V17.4202C237.462 15.2902 238.622 13.8402 239.882 11.4202V11.4102Z" fill="white"/>
<path d="M180.002 27.3003H182.522V21.2903C183.182 21.0103 183.832 20.6803 184.462 20.3203C186.692 21.5803 188.922 23.1303 190.862 24.4903V20.9003C189.442 20.0103 187.952 19.2303 186.402 18.5703C187.662 16.8303 188.442 14.4003 189.022 10.6303H182.532V7.82031H180.012V10.6303H172.842V12.9503H185.532C184.562 17.7003 183.402 19.9303 172.262 20.9903V23.6103C174.842 23.2503 177.402 22.7303 179.912 22.0603V27.2903H180.012L180.002 27.3003Z" fill="white"/>
<path d="M107.33 20.3203H105.2C105.04 22.2503 104.72 24.1603 104.23 26.0403H106.55C107.05 24.1703 107.31 22.2503 107.33 20.3203Z" fill="white"/>
<path d="M126.032 24.9702H120.602V22.3502H125.152V20.2202H120.602V17.9902H118.282V20.2202H113.922V22.3502H118.282V24.9702H112.762V27.0002H126.032V24.9702Z" fill="white"/>
<path d="M119.352 14.4098C118.152 13.6498 117.242 12.5298 116.732 11.2098H114.212C114.822 12.7898 115.782 14.2198 117.022 15.3798C116.082 15.6598 115.102 15.7998 114.112 15.7698V18.0998C115.952 17.9898 117.752 17.5598 119.442 16.8398C121.342 17.6698 123.382 18.1298 125.452 18.1998V15.8798C124.202 15.9298 122.962 15.7698 121.772 15.3998C123.712 13.7498 124.772 11.2298 125.162 7.83984H113.822V9.77984H122.062C121.912 11.6598 120.912 13.3798 119.352 14.4298V14.4098Z" fill="white"/>
<path d="M110.341 27.78V18.38L111.601 18.28C111.691 18.53 111.751 18.79 111.791 19.05H113.821C113.531 17.98 113.041 16.14 112.661 15.17H110.721C110.921 15.56 111.051 15.99 111.111 16.43C110.241 16.43 109.951 16.53 108.791 16.53C109.571 15.56 111.891 12.36 113.151 10.52H110.441C109.861 11.39 109.471 12.07 108.791 12.94L107.731 11.88C108.641 10.54 109.481 9.13996 110.251 7.70996H107.831C107.051 9.06996 105.021 12.26 105.021 12.26C105.871 12.99 106.651 13.8 107.341 14.68C107.051 15.16 106.471 15.84 106.081 16.42H104.531V18.55C105.211 18.45 106.851 18.36 107.921 18.26V27.46H110.241V27.75H110.341V27.78Z" fill="white"/>
<path d="M112.862 19.9307H110.922C111.262 21.3607 111.452 22.8207 111.502 24.2907H113.542C113.482 22.8207 113.252 21.3507 112.862 19.9307Z" fill="white"/>
<path d="M141.442 26.52C142.972 26.52 144.492 26.39 145.992 26.13V23.61C144.482 23.82 142.962 23.95 141.442 24H134.562C133.202 24 132.722 23.81 132.722 22.74V16.44C136.862 16.24 140.952 15.56 144.932 14.41V11.89C140.962 13.08 136.862 13.8 132.722 14.02V8.79004H130.102V23.52C130.102 25.65 131.172 26.52 134.072 26.52H141.432H141.442Z" fill="white"/>
<path d="M144.343 11.1203C144.273 9.91027 144.083 8.71027 143.763 7.53027H141.723C141.993 8.71027 142.193 9.91027 142.303 11.1203H144.343Z" fill="white"/>
<path d="M147.741 11.1203C147.671 9.91027 147.481 8.71027 147.161 7.53027H145.121C145.391 8.71027 145.591 9.91027 145.701 11.1203H147.741Z" fill="white"/>
<path d="M166.922 11.1203C166.852 9.91027 166.662 8.71027 166.342 7.53027H164.402C164.672 8.71027 164.872 9.91027 164.982 11.1203H166.922Z" fill="white"/>
<path d="M170.12 11.1203C170.05 9.91027 169.86 8.71027 169.54 7.53027H167.5C167.77 8.71027 167.97 9.91027 168.08 11.1203H170.12Z" fill="white"/>
<path d="M51.1409 53.5502C53.2309 53.4902 55.1209 52.3102 56.0809 50.4502H47.7509C47.6509 52.2902 49.1109 53.5502 51.1409 53.5502Z" fill="white"/>
<path d="M58.7898 47.6405C60.8398 47.3505 62.5798 45.9805 63.3398 44.0605L55.0098 44.9305C55.2798 46.7005 56.9298 47.9205 58.7098 47.6605C58.7398 47.6605 58.7598 47.6605 58.7898 47.6505V47.6405Z" fill="white"/>
<path d="M63.4412 40.96C65.4612 40.31 66.9513 38.59 67.3213 36.5L59.2812 38.83C59.7512 40.52 61.5113 41.51 63.2113 41.04C63.2913 41.02 63.3713 40.99 63.4513 40.96H63.4412Z" fill="white"/>
<path d="M62.4688 32.6203C63.4787 34.0303 65.4487 34.3503 66.8587 33.3303C66.9187 33.2903 66.9687 33.2503 67.0287 33.2003C68.7387 31.9503 69.6287 29.8703 69.3487 27.7803L62.4688 32.6203Z" fill="white"/>
<path d="M64.6992 24.4902C66.0592 25.5502 68.0192 25.3102 69.0792 23.9602C69.1392 23.8802 69.1992 23.8002 69.2492 23.7202C70.5092 22.0502 70.7992 19.8502 70.0292 17.9102L64.6992 24.5002V24.4902Z" fill="white"/>
<path d="M19.4498 53.5502C21.2098 53.6602 22.7298 52.3202 22.8398 50.5602C22.8398 50.5202 22.8398 50.4902 22.8398 50.4502H14.5098C15.4298 52.3402 17.3498 53.5502 19.4498 53.5502Z" fill="white"/>
<path d="M15.3808 44.9305L7.05078 44.0605C7.82078 45.9805 9.55078 47.3505 11.6008 47.6405C13.5408 47.8305 15.2808 46.7705 15.3808 44.9305Z" fill="white"/>
<path d="M11.1201 39.0202L3.08008 36.7002C3.51008 38.7602 4.98008 40.4502 6.96008 41.1602C8.80008 41.4502 10.6401 40.7702 11.1301 39.0302L11.1201 39.0202Z" fill="white"/>
<path d="M8.02021 32.6203L1.14021 27.7803C0.90021 29.8703 1.79021 31.9403 3.47021 33.2103C4.82021 34.3203 6.80021 34.1203 7.91021 32.7803C7.95021 32.7303 7.99021 32.6803 8.02021 32.6303V32.6203Z" fill="white"/>
<path d="M5.68998 24.4902L0.459981 17.9902C-0.370019 19.9202 -0.0700191 22.1502 1.22998 23.8002C2.10998 25.1902 3.95998 25.6102 5.34998 24.7302C5.46998 24.6602 5.57998 24.5702 5.68998 24.4802V24.4902Z" fill="white"/>
<path d="M11.6096 2.10039V9.75039L20.7096 0.650391C17.5096 1.13039 14.4096 1.52039 11.5996 2.10039H11.6096Z" fill="white"/>
<path d="M12.8598 26.0401L38.9298 0.0701172C35.9298 -0.0298828 32.9198 -0.0298828 29.9198 0.0701172L11.5098 18.4801C11.7398 21.0301 12.1998 23.5601 12.8698 26.0401H12.8598Z" fill="white"/>
<path d="M58.8899 6.37012L22.1699 43.0901C23.5299 44.6901 25.0199 46.1801 26.6299 47.5501L58.6899 15.4801C58.8799 11.0201 58.8799 8.41012 58.8799 6.37012H58.8899Z" fill="white"/>
<path d="M57.8196 24.9697L31.8496 50.9397C32.8996 51.5197 33.9996 52.0097 35.1396 52.3897C45.8996 48.5197 54.8096 36.6997 57.8096 24.9697H57.8196Z" fill="white"/>
<path d="M47.3609 0.259766L15.3809 32.3298C16.2809 34.3298 17.3509 36.2398 18.5809 38.0498L55.5909 1.03977C52.8809 0.649766 50.0709 0.459766 47.3509 0.259766H47.3609Z" fill="white"/>
</svg>
