<svg width="324" height="60" viewBox="0 0 324 60" fill="none" xmlns="http://www.w3.org/2000/svg">
<path d="M311.529 8.20439H310.53V0.607698H307.812V-0.262756H314.227V0.607698H311.509V8.20439H311.529ZM319.322 8.20439L316.425 0.68683H316.385C316.444 1.28032 316.464 1.99251 316.464 2.80362V8.1846H315.545V-0.262756H317.044L319.761 6.72066H319.801L322.539 -0.262756H324.017V8.20439H323.018V2.74427C323.018 2.11121 323.038 1.43859 323.098 0.706613H323.058L320.121 8.20439H319.322Z" fill="white"/>
<path d="M35.0276 10.2223H43.4997L26.0159 59.6601H17.4039L0 10.2223H8.39223L18.8026 40.9453C19.3421 42.4093 19.9216 44.3084 20.541 46.6231C21.1604 48.9179 21.56 50.639 21.7399 51.7666C22.0396 50.0455 22.4992 48.0672 23.0986 45.812C23.718 43.5567 24.2176 41.8949 24.5972 40.8068L35.0076 10.2025L35.0276 10.2223ZM78.3275 59.6403H50.0936V10.2223H78.3275V17.0474H58.2461V30.4999H77.0686V37.2657H58.2461V52.7756H78.3275V59.6403ZM97.3299 33.2102H103.005C106.801 33.2102 109.559 32.5177 111.277 31.1132C112.995 29.7086 113.835 27.6511 113.835 24.9013C113.835 22.1514 112.915 20.094 111.077 18.8872C109.239 17.6607 106.461 17.0672 102.745 17.0672H97.3499V33.2299L97.3299 33.2102ZM97.3299 39.8968V59.6403H89.1774V10.2223H103.284C109.718 10.2223 114.494 11.4092 117.591 13.803C120.688 16.1967 122.227 19.7972 122.227 24.6243C122.227 30.7768 118.99 35.1687 112.536 37.78L126.643 59.6601H117.351L105.402 39.9166H97.3499L97.3299 39.8968ZM162.689 46.2274C162.689 50.6192 161.091 54.0615 157.874 56.5739C154.657 59.0666 150.241 60.3327 144.586 60.3327C138.931 60.3327 134.316 59.4623 130.719 57.7213V50.0851C132.997 51.1534 135.415 51.9843 137.952 52.5778C140.53 53.191 142.908 53.4878 145.126 53.4878C148.363 53.4878 150.74 52.8745 152.259 51.6677C153.798 50.4412 154.577 48.819 154.577 46.7615C154.577 44.9217 153.878 43.3391 152.459 42.0532C151.04 40.7673 148.143 39.244 143.707 37.4833C139.151 35.6632 135.934 33.5662 134.076 31.2318C132.218 28.8974 131.278 26.0685 131.278 22.7845C131.278 18.6498 132.757 15.4054 135.714 13.0512C138.672 10.6773 142.648 9.51007 147.623 9.51007C152.599 9.51007 157.154 10.5388 161.89 12.616L159.292 19.2038C154.857 17.3639 150.9 16.4341 147.404 16.4341C144.766 16.4341 142.768 17.0078 141.389 18.1553C140.03 19.2829 139.331 20.7864 139.331 22.646C139.331 23.9319 139.611 25.0398 140.15 25.9498C140.69 26.8598 141.589 27.7105 142.848 28.5216C144.107 29.3327 146.344 30.401 149.601 31.7264C153.258 33.2299 155.956 34.6543 157.654 35.96C159.352 37.2657 160.611 38.7494 161.411 40.3914C162.21 42.0334 162.609 43.9721 162.609 46.2076L162.689 46.2274ZM203.312 59.6403L198.316 45.9109H179.234L174.359 59.6403H165.747L184.429 10.0046H193.301L211.984 59.6403H203.312ZM196.178 38.9472L191.503 25.4948C191.163 24.5847 190.683 23.1801 190.064 21.2414C189.465 19.3027 189.065 17.8783 188.825 16.9881C188.206 19.7577 187.307 22.7845 186.128 26.0883L181.612 38.967H196.158L196.178 38.9472ZM260.179 59.6403H250.168L225.611 20.2523H225.331L225.491 22.4482C225.811 26.6422 225.971 30.4801 225.971 33.9421V59.6403H218.558V10.2223H228.468L252.946 49.4125H253.146C253.106 48.8981 253.006 47.0187 252.866 43.7743C252.726 40.5101 252.666 37.9581 252.666 36.138V10.2223H260.139V59.6601L260.179 59.6403ZM290.591 59.6403H282.438V17.1463H267.752V10.2223H305.277V17.1463H290.591V59.6403Z" fill="white"/>
</svg>
