<svg width="403" height="47" viewBox="0 0 403 47" fill="none" xmlns="http://www.w3.org/2000/svg">
<rect width="373" height="47" fill="white"/>
<path d="M373 0L403 47H373V0Z" fill="white"/>
<path d="M303.759 17.2384H298.839C298.727 17.2384 298.637 17.3296 298.637 17.4406V17.4497C298.637 17.5533 298.699 17.6445 298.795 17.6802C299.235 17.8409 300.428 17.6147 300.428 18.8935V27.9366C300.428 28.5939 300.136 29.0588 298.802 29.184C298.698 29.1947 298.617 29.2809 298.617 29.3854V29.416C298.617 29.5279 298.708 29.6183 298.819 29.6183H304.086C304.197 29.6183 304.288 29.5279 304.288 29.416V29.3887C304.288 29.2842 304.204 29.1964 304.099 29.1873C302.65 29.0712 302.358 28.6229 302.358 27.9366V24.6603L302.362 27.9383V24.6545H303.625C305.511 24.6545 306.947 24.2559 307.891 23.4669C308.876 22.643 309.084 21.6004 309.084 20.8702C309.087 17.8675 306.19 17.2384 303.759 17.2384ZM303.759 24.0736H302.363V17.7597H303.815C306.54 17.7597 306.907 19.3129 306.907 20.8329C306.908 22.9223 306.393 24.0736 303.759 24.0736Z" fill="#211819"/>
<path d="M325.694 29.0538C325.66 28.966 325.568 28.9163 325.478 28.9362L325.451 28.9444C325.184 29.0008 324.979 28.9859 324.835 28.8889C324.632 28.7505 324.532 28.4397 324.532 27.9383V23.3989C324.532 21.6253 323.475 20.726 321.39 20.726C319.522 20.726 318.058 21.6095 318.058 22.74C318.058 23.3193 318.411 23.7387 318.934 23.8017C319.275 23.8431 319.601 23.6882 319.837 23.4387C320.296 22.953 320.237 22.3778 319.68 21.7587C320.009 21.4147 320.593 21.2117 321.258 21.2117C322.342 21.2117 322.804 21.8532 322.804 23.3608V24.5078C322.55 24.5874 322.312 24.662 321.878 24.7639C320.999 24.9695 319.795 25.243 318.887 25.7469C318.138 26.1563 317.758 26.8053 317.758 27.6747C317.758 28.6204 318.379 29.7252 320.128 29.7252C321.108 29.7252 321.986 29.2602 322.886 28.264C322.964 29.3 323.356 29.6871 324.309 29.6871C324.767 29.6871 325.133 29.581 325.569 29.3704C325.685 29.3124 325.742 29.1748 325.694 29.0538ZM322.804 27.6673C322.59 27.9623 321.895 28.845 321.03 28.845C319.86 28.845 319.614 28.0245 319.614 27.3349C319.614 26.2036 320.482 25.6789 322.804 25.1071V27.6673Z" fill="#211819"/>
<path d="M345.223 29.7626C342.745 29.7626 340.875 27.8199 340.875 25.2448C340.875 22.7227 342.826 20.6698 345.223 20.6698C347.651 20.6698 349.553 22.6465 349.553 25.1694C349.553 28.0063 347.305 29.7626 345.223 29.7626ZM345.131 21.1546C344.059 21.1546 342.829 21.6154 342.829 25.2075C342.829 27.9467 343.637 29.2777 345.301 29.2777C346.89 29.2777 347.599 28.0221 347.599 25.2075C347.599 22.4807 346.792 21.1546 345.131 21.1546Z" fill="#211819"/>
<path d="M313.072 20.6655C310.78 20.6655 308.914 22.7416 308.914 25.2927C308.914 27.8761 310.663 29.7508 313.072 29.7508C315.097 29.7508 316.082 28.5408 316.647 27.6307C316.701 27.5421 316.677 27.4227 316.592 27.3614L316.565 27.3423C316.478 27.281 316.357 27.2976 316.29 27.3829C315.545 28.3153 314.893 28.8557 313.768 28.8557C312.344 28.8557 310.824 27.8744 310.824 25.1236V25.1037C310.822 24.9827 310.825 24.8153 310.829 24.6603H316.651C316.667 24.6603 316.681 24.647 316.681 24.6313L316.684 24.5849C316.767 23.4569 316.448 22.4424 315.786 21.7305C315.138 21.0343 314.199 20.6655 313.072 20.6655ZM310.861 24.0801C311.052 22.1979 311.787 21.1652 312.941 21.1652C313.519 21.1652 313.947 21.3244 314.249 21.6534C314.664 22.1051 314.841 22.9215 314.77 24.0801H310.861Z" fill="#211819"/>
<path d="M337.207 24.1821L337.205 24.1804C335.612 23.7337 334.992 23.282 334.992 22.5684C334.992 21.7562 335.637 21.1661 336.527 21.1661C337.573 21.1661 338.021 21.6658 339.125 23.5116L339.14 23.5364C339.145 23.5464 339.155 23.5514 339.166 23.5514H339.318C339.429 23.5514 339.521 23.461 339.521 23.3491V20.6961C339.521 20.6796 339.506 20.6663 339.49 20.6663H339.289C339.23 20.6663 339.173 20.6928 339.134 20.7409L338.78 21.1694C338.336 20.9249 337.611 20.6671 336.883 20.6671C335.056 20.6671 333.779 21.7976 333.779 23.4146C333.779 24.9346 334.786 25.504 336.524 25.9723C338.214 26.4356 338.814 26.9171 338.814 27.8114C338.814 28.8043 337.851 29.2519 337.167 29.2519C335.895 29.2519 335.357 28.7795 334.138 26.5889L334.123 26.5624C334.118 26.5525 334.108 26.5458 334.097 26.5458H333.944C333.832 26.5458 333.742 26.637 333.742 26.7489V29.721C333.742 29.7384 333.755 29.7516 333.772 29.7516H333.978C334.031 29.7516 334.084 29.7301 334.122 29.692L334.68 29.135C335.332 29.5395 336.308 29.7516 336.941 29.7516C337.893 29.7516 338.675 29.4508 339.204 28.8797C339.675 28.3717 339.934 27.6523 339.934 26.8525C339.933 25.4676 339.193 24.744 337.207 24.1821Z" fill="#211819"/>
<path d="M327.566 28.5516C327.566 29.0099 327.45 29.1599 326.72 29.2055C326.614 29.213 326.531 29.3008 326.531 29.4077C326.531 29.5188 326.621 29.6083 326.732 29.6083H330.335C330.446 29.6083 330.534 29.5205 330.534 29.4102C330.534 29.3025 330.45 29.2146 330.343 29.2088C329.509 29.1682 329.293 29.0339 329.293 28.5516V23.268C329.886 22.2825 330.312 21.7653 331.032 21.6095C330.998 21.733 330.974 21.8839 330.974 22.0049C330.974 22.6464 331.423 23.0947 332.064 23.0947C332.695 23.0947 333.135 22.6464 333.135 22.0049C333.135 21.3982 332.756 20.6895 331.687 20.6895C330.811 20.6895 329.975 21.191 329.256 22.3936V21.0343C329.256 20.8951 329.141 20.784 329.003 20.7873L326.732 20.8478C326.622 20.8512 326.536 20.939 326.536 21.0501V21.0783C326.536 21.1785 326.609 21.2647 326.704 21.2763C327.461 21.3841 327.566 21.7438 327.566 22.1184L327.566 28.5516Z" fill="#211819"/>
<path d="M352.487 20.7814C352.54 20.7814 352.589 20.8013 352.628 20.8378C352.667 20.8768 352.689 20.9273 352.689 20.982L352.697 22.4888C352.697 22.4888 353.437 20.7218 355.836 20.7218H355.857C357.353 20.7218 358.211 21.6757 358.211 23.3383V28.5407C358.211 29.0007 358.327 29.1491 359.057 29.1963C359.162 29.2029 359.245 29.2908 359.245 29.3969C359.245 29.5088 359.156 29.5991 359.044 29.5991H355.807C355.695 29.5991 355.605 29.5088 355.605 29.3969C355.605 29.2891 355.686 29.2004 355.79 29.1913C356.377 29.1416 356.473 28.9932 356.473 28.5407V23.8447C356.473 22.2948 356.032 21.6906 354.899 21.6906C354.135 21.6906 353.509 22.3587 353.119 22.9173C353.119 22.9173 352.919 23.1676 352.703 23.6383L352.725 28.5399C352.725 28.9916 352.817 29.1399 353.389 29.1905C353.491 29.1996 353.574 29.2875 353.574 29.3911C353.574 29.5079 353.482 29.5983 353.372 29.5983H350.154C350.043 29.5983 349.953 29.5079 349.953 29.396C349.953 29.29 350.036 29.2021 350.143 29.1946C350.871 29.1482 350.988 28.9982 350.988 28.5399V22.1166C350.988 21.7429 350.885 21.3798 350.124 21.2713C350.027 21.258 349.954 21.1726 349.954 21.0724V21.0433C349.954 20.9323 350.04 20.8444 350.151 20.8411L352.487 20.7814Z" fill="#211819"/>
<path d="M288.863 11.7384C294.568 14.989 295.896 22.2767 291.926 29.6522C288.437 36.1334 280.82 38.9025 275.143 35.603C269.466 32.3019 268.358 23.093 270.798 17.7953C274.34 10.0999 282.559 8.14636 288.863 11.7384Z" fill="#0089B8"/>
<path d="M288.725 17.3312C289.841 18.523 290.188 20.3323 289.994 21.8158C289.772 23.5083 288.747 25.0747 287.041 26.1132C285.688 26.9362 283.912 27.2652 282.162 27.2793C282.147 27.5578 282.093 28.5117 282.065 28.6634C282.024 28.8864 281.946 29.0065 281.85 29.1309C281.662 29.3754 281.337 29.5337 281.013 29.6265C280.756 29.6994 280.501 29.7309 280.321 29.7309C280.291 29.7309 280.262 29.7293 280.232 29.7251C280.042 29.7044 279.831 29.6132 279.7 29.469C279.569 29.3231 279.496 29.1392 279.478 28.9303L279.463 28.7413C279.425 28.5789 279.223 20.3571 279.262 20.5038C279.292 19.5184 280.883 19.3468 281.746 19.52C282.61 19.6949 282.391 20.7458 282.369 22.0355C282.369 22.0355 282.327 23.7353 282.248 25.5305C283.348 25.4866 284.223 25.1725 285.041 24.7664C286.696 23.9475 287.571 22.6894 287.571 20.8378C287.571 18.9871 285.767 16.9126 282.442 16.9126C279.118 16.9126 277.692 17.7522 276.08 19.0833C275.717 19.3841 275.438 19.6875 275.174 19.8864C274.908 20.0853 274.207 20.116 274.018 19.6502C273.791 19.0882 274.215 18.4608 274.463 18.1583C274.855 17.6818 275.819 16.7237 276.888 16.1667C278.113 15.5277 279.611 14.839 281.697 14.7859C283.583 14.7387 286.561 14.892 288.708 17.3154M281.512 30.9451C281.338 30.8092 281.143 30.7164 280.946 30.6774C280.879 30.6642 280.81 30.6575 280.743 30.6575C280.372 30.6575 280.007 30.8614 279.77 31.2054C279.571 31.4896 279.489 31.8303 279.543 32.1601C279.577 32.3707 279.655 32.5538 279.771 32.6897C279.902 32.8439 280.103 32.9616 280.35 33.0329C280.493 33.0718 280.64 33.0925 280.787 33.0925C281.108 33.0925 281.396 32.9972 281.619 32.8157C281.88 32.6027 282.021 32.3002 282.018 31.9645C282.015 31.5709 281.826 31.1904 281.512 30.9451Z" fill="white"/>
<path d="M186.147 15L183.194 26.0181L179.561 15H174.557L170 32H174.134H174.153H174.157L177.319 20.1929L181.197 32H185.737H185.743L190.298 15H186.147Z" fill="#0062AE"/>
<path d="M245.431 15L240.875 32H245.026L249.583 15H245.431Z" fill="#0062AE"/>
<path d="M192.782 15L188.227 32H192.378L196.935 15H192.782Z" fill="#0062AE"/>
<path d="M230.725 15L226.271 31.6208L222.994 22.8665H221.707H221.704L229.479 15H224.577L217.321 22.2174L219.256 15H215.103L210.624 31.7148L207.314 22.8665H206.027H206.024L213.798 15H208.897L201.64 22.2174L203.575 15H199.423L194.867 32H194.952H198.989H199.019L201.467 22.8665H202.935L205.924 32H214.67H214.7L217.148 22.8665H218.616L221.605 32H238.361L239.286 28.5495H231.245L232.192 25.0204H239.266L240.113 21.8591H233.039L233.951 18.4545H241.875L242.802 15H230.725Z" fill="#0062AE"/>
<path d="M21.2557 33.3377H20V18.2276H21.2557V20.1319H21.2971C21.4786 19.7836 21.7121 19.47 21.9977 19.1898C22.2833 18.9122 22.5969 18.68 22.9398 18.4985C23.2814 18.317 23.6337 18.1782 23.9967 18.0795C24.3584 17.9821 24.716 17.934 25.0643 17.934C25.9437 17.934 26.6883 18.0795 27.3022 18.3731C27.916 18.6666 28.4231 19.0683 28.8195 19.5754C29.2185 20.0852 29.5067 20.6884 29.6869 21.3863C29.8684 22.0842 29.9604 22.8302 29.9604 23.6255C29.9604 24.3781 29.863 25.1041 29.6669 25.802C29.472 26.4999 29.1758 27.1098 28.7781 27.6329C28.3791 28.1573 27.8787 28.575 27.2715 28.8886C26.6656 29.2022 25.9477 29.3597 25.1257 29.3597C24.3584 29.3597 23.6217 29.1889 22.9185 28.8473C22.2139 28.5056 21.6587 27.9985 21.2544 27.33L21.2557 33.3377ZM21.2557 23.6896C21.2557 24.3034 21.3385 24.8852 21.5066 25.4377C21.6734 25.9888 21.9136 26.4706 22.2286 26.8829C22.5422 27.2939 22.9251 27.6222 23.3789 27.8664C23.8326 28.1106 24.345 28.2321 24.9175 28.2321C25.5594 28.2321 26.1199 28.104 26.6029 27.8451C27.0833 27.5862 27.4783 27.2339 27.7853 26.7882C28.0908 26.3425 28.315 25.8234 28.4538 25.2309C28.5926 24.6384 28.6487 23.9992 28.6206 23.3146C28.6206 22.6313 28.5272 22.0282 28.3391 21.5037C28.1509 20.9819 27.8893 20.5376 27.5544 20.1759C27.2194 19.8129 26.8298 19.5367 26.3827 19.3486C25.937 19.1591 25.4486 19.067 24.9175 19.067C24.333 19.067 23.8086 19.1857 23.3482 19.4219C22.8878 19.6595 22.5035 19.9838 22.1965 20.3948C21.8896 20.8071 21.6561 21.2955 21.4959 21.86C21.3358 22.4245 21.2557 23.0343 21.2557 23.6896Z" fill="#231815"/>
<path d="M38.0573 22.7487C38.2935 22.7207 38.5764 22.678 38.9046 22.6233C39.2316 22.5672 39.5011 22.4898 39.7107 22.3924C39.9202 22.295 40.0483 22.1309 40.0977 21.9C40.147 21.6691 40.171 21.457 40.171 21.2621C40.171 20.6203 39.9642 20.0931 39.5532 19.6821C39.1422 19.2698 38.4483 19.0643 37.4701 19.0643C37.0377 19.0643 36.6401 19.103 36.2771 19.179C35.9141 19.2564 35.5978 19.3885 35.3256 19.5754C35.0521 19.7649 34.8292 20.0157 34.6557 20.3293C34.4822 20.6429 34.3675 21.0379 34.3101 21.5117H33.033C33.0757 20.8698 33.2212 20.3213 33.4734 19.869C33.7243 19.4152 34.0485 19.0456 34.4462 18.7587C34.8425 18.4744 35.3043 18.2636 35.8274 18.1301C36.3518 17.998 36.9056 17.9326 37.4914 17.9326C38.0372 17.9326 38.5483 17.9927 39.0314 18.1101C39.5118 18.2289 39.9295 18.4171 40.2858 18.6746C40.6421 18.9335 40.9223 19.2791 41.1238 19.7115C41.3254 20.1439 41.4268 20.675 41.4268 21.3022V27.2032C41.4268 27.6916 41.5135 28.0025 41.6883 28.1346C41.8618 28.2667 42.2141 28.236 42.7452 28.0412V29.0247C42.6478 29.0527 42.505 29.0941 42.3169 29.1501C42.1287 29.2062 41.9432 29.2342 41.7617 29.2342C41.5656 29.2342 41.3774 29.2129 41.1959 29.1715C40.9864 29.1435 40.8196 29.0781 40.6942 28.9727C40.5674 28.8672 40.4673 28.7418 40.3899 28.5963C40.3138 28.4495 40.2605 28.2894 40.2338 28.1133C40.2057 27.9398 40.1911 27.7543 40.1911 27.5595C39.6613 28.1453 39.0528 28.5923 38.3695 28.8993C37.6863 29.2062 36.947 29.3597 36.1516 29.3597C35.6779 29.3597 35.2202 29.2969 34.7798 29.1715C34.3421 29.0461 33.9538 28.8512 33.6188 28.587C33.2839 28.3214 33.0183 27.9972 32.8235 27.6142C32.6287 27.2312 32.5312 26.7735 32.5312 26.2437C32.5312 24.4021 33.7936 23.3132 36.3198 22.9783L38.0573 22.7487ZM40.1697 23.3746C39.6399 23.5988 39.1021 23.7442 38.5577 23.815C38.0132 23.8857 37.4701 23.9404 36.9256 23.9818C35.9635 24.0512 35.2135 24.2673 34.6757 24.6303C34.1379 24.9933 33.871 25.5444 33.871 26.2824C33.871 26.6173 33.9364 26.9069 34.0686 27.1511C34.202 27.3953 34.3768 27.5982 34.593 27.7583C34.8092 27.9198 35.0601 28.0385 35.3456 28.1146C35.6299 28.192 35.9208 28.2307 36.213 28.2307C36.7161 28.2307 37.2032 28.168 37.6796 28.0425C38.152 27.9171 38.575 27.7249 38.9447 27.466C39.3143 27.2085 39.6119 26.8816 39.8348 26.4826C40.0576 26.0849 40.1697 25.6152 40.1697 25.0694V23.3746Z" fill="#231815"/>
<path d="M46.6372 29.0688H45.3828V18.2276H46.6372V20.2573H46.6799C47.0282 19.3926 47.4779 18.7894 48.0304 18.4465C48.5815 18.1062 49.3088 17.934 50.2176 17.934V19.2938C49.5063 19.2805 48.9205 19.3926 48.4601 19.6288C47.9984 19.8663 47.6327 20.1866 47.3605 20.5909C47.0896 20.9953 46.9001 21.473 46.796 22.0241C46.6919 22.5753 46.6385 23.1504 46.6385 23.7509L46.6372 29.0688Z" fill="#231815"/>
<path d="M57.2178 29.1089C57.0643 29.1369 56.8615 29.1863 56.6106 29.2557C56.3597 29.3251 56.0808 29.3598 55.7739 29.3598C55.1454 29.3598 54.669 29.2023 54.3407 28.8887C54.0124 28.5751 53.8483 28.0133 53.8483 27.2033V19.2739H52.3203V18.2277H53.8483V15.2132H55.104V18.2277H57.1351V19.2739H55.104V26.7042C55.104 26.9684 55.1107 27.1993 55.1254 27.3941C55.1387 27.5903 55.1814 27.7504 55.2508 27.8759C55.3202 28.0013 55.4296 28.0934 55.5751 28.1481C55.7219 28.2042 55.9274 28.2322 56.1929 28.2322C56.3597 28.2322 56.5305 28.2188 56.7054 28.1895C56.8802 28.1628 57.051 28.1268 57.2178 28.0854V29.1089Z" fill="#231815"/>
<path d="M61.0995 29.0688H59.8438V18.2276H61.0995V19.7342C61.6012 19.2044 62.1203 18.7707 62.6581 18.4358C63.1959 18.1022 63.8405 17.934 64.5931 17.934C65.263 17.934 65.8835 18.0488 66.456 18.2796C67.0272 18.5092 67.5102 18.9122 67.8999 19.482C68.1641 19.873 68.3216 20.2733 68.371 20.6857C68.4203 21.098 68.4444 21.5264 68.4444 21.9721V29.0661H67.1886V21.9948C67.1886 21.018 66.9711 20.2853 66.5401 19.7969C66.1077 19.3085 65.3884 19.0656 64.3849 19.0656C63.9939 19.0656 63.6376 19.1244 63.3174 19.2431C62.9971 19.3606 62.7075 19.518 62.45 19.7142C62.1911 19.909 61.9709 20.1319 61.7894 20.3828C61.6092 20.6336 61.4705 20.9005 61.3717 21.1781C61.2463 21.5277 61.1702 21.8613 61.1408 22.183C61.1128 22.5032 61.0995 22.8515 61.0995 23.2292V29.0688Z" fill="#231815"/>
<path d="M72.8099 23.9404C72.8099 24.5262 72.8859 25.0814 73.0394 25.6058C73.1929 26.1276 73.4197 26.5813 73.72 26.9656C74.0202 27.35 74.4006 27.6556 74.8596 27.8864C75.3213 28.116 75.8511 28.232 76.4503 28.232C77.2723 28.232 77.9783 28.0159 78.5641 27.5835C79.1499 27.1511 79.5382 26.5373 79.7357 25.7419H81.1396C80.9835 26.2584 80.782 26.7361 80.5324 27.1752C80.2802 27.6155 79.9666 27.9985 79.5903 28.3268C79.214 28.6551 78.7669 28.91 78.2505 29.0901C77.7327 29.2729 77.1335 29.3623 76.4503 29.3623C75.5856 29.3623 74.8383 29.2169 74.2111 28.9233C73.5825 28.6297 73.0674 28.2294 72.6618 27.7196C72.2561 27.2099 71.9572 26.6107 71.7623 25.9194C71.5662 25.2295 71.4688 24.4862 71.4688 23.6909C71.4688 22.8955 71.5848 22.1496 71.8144 21.4516C72.0439 20.7537 72.3722 20.1439 72.7979 19.6208C73.2222 19.0963 73.7427 18.6853 74.3565 18.385C74.9704 18.0848 75.667 17.9353 76.449 17.9353C77.9422 17.9353 79.1125 18.4478 79.9653 19.4726C80.8167 20.4988 81.2343 21.9881 81.221 23.9404H72.8099ZM79.8852 22.8942C79.8852 22.3644 79.8118 21.8653 79.6637 21.3983C79.5182 20.9299 79.302 20.5255 79.0165 20.1839C78.7296 19.8423 78.3719 19.5701 77.9382 19.3672C77.5045 19.1644 77.0108 19.0643 76.453 19.0643C75.8952 19.0643 75.4027 19.1684 74.9784 19.3779C74.5527 19.5874 74.1897 19.8663 73.8908 20.2146C73.5905 20.5629 73.349 20.9672 73.1688 21.429C72.9874 21.8893 72.8686 22.3778 72.8125 22.8942H79.8852Z" fill="#231815"/>
<path d="M85.5526 29.0688H84.2969V18.2276H85.5526V20.2573H85.594C85.9423 19.3926 86.392 18.7894 86.9445 18.4465C87.4942 18.1062 88.2242 17.934 89.1316 17.934V19.2938C88.4204 19.2805 87.8332 19.3926 87.3755 19.6288C86.9138 19.8663 86.5481 20.1866 86.2759 20.5909C86.005 20.9953 85.8155 21.473 85.7101 22.0241C85.606 22.5753 85.554 23.1504 85.554 23.7509V29.0688H85.5526Z" fill="#231815"/>
<path d="M92.4932 25.6778C92.6867 26.6119 93.0403 27.2711 93.5487 27.6541C94.0598 28.0384 94.7871 28.2306 95.7359 28.2306C96.1976 28.2306 96.5966 28.1759 96.9302 28.0638C97.2652 27.9517 97.5401 27.8022 97.7563 27.6141C97.9725 27.4259 98.1366 27.2124 98.2487 26.9749C98.3595 26.7373 98.4155 26.4865 98.4155 26.2222C98.4155 25.6911 98.2447 25.2975 97.9031 25.0386C97.5601 24.781 97.1331 24.5768 96.6166 24.4314C96.0975 24.2846 95.5397 24.1592 94.9406 24.0537C94.3414 23.9496 93.7836 23.7922 93.2672 23.5827C92.7494 23.3732 92.321 23.0742 91.9794 22.6832C91.6378 22.2936 91.4656 21.7411 91.4656 21.0298C91.4656 20.1224 91.7979 19.3804 92.4611 18.8C93.1217 18.2221 94.0612 17.9326 95.2755 17.9326C96.4472 17.9326 97.3987 18.1941 98.1313 18.7172C98.8639 19.2403 99.3083 20.1157 99.4604 21.3434H98.1846C98.0726 20.5054 97.755 19.9156 97.2332 19.5739C96.7087 19.2323 96.0482 19.0628 95.2555 19.0628C94.4588 19.0628 93.8517 19.2323 93.434 19.5739C93.0163 19.9156 92.8054 20.3666 92.8054 20.9244C92.8054 21.4128 92.9776 21.7865 93.3192 22.044C93.6608 22.3016 94.0892 22.5124 94.6056 22.6726C95.1234 22.8327 95.6812 22.9755 96.2804 23.1009C96.8795 23.2264 97.4373 23.4052 97.9538 23.6347C98.4729 23.8656 98.8999 24.1752 99.2416 24.5662C99.5845 24.9572 99.7553 25.5003 99.7553 26.1996C99.7553 26.7147 99.6432 27.1724 99.4217 27.57C99.1975 27.9677 98.8906 28.3 98.4996 28.5642C98.1086 28.8298 97.6442 29.0286 97.1077 29.1607C96.5713 29.2928 95.9814 29.3596 95.3396 29.3596C94.699 29.3596 94.1306 29.2661 93.6355 29.078C93.1404 28.8898 92.7174 28.6283 92.3704 28.2933C92.0194 27.9584 91.7472 27.5687 91.5537 27.1217C91.3575 26.6746 91.2481 26.1942 91.2188 25.6778H92.4932Z" fill="#231815"/>
<path d="M102.797 29.0688V14H104.053V19.7342C104.556 19.2044 105.073 18.7707 105.611 18.4358C106.148 18.1021 106.794 17.934 107.548 17.934C108.217 17.934 108.838 18.0488 109.409 18.2796C109.983 18.5092 110.463 18.9122 110.854 19.482C111.119 19.873 111.275 20.2733 111.327 20.6857C111.375 21.098 111.399 21.5264 111.399 21.9721V29.0661H110.143V21.9948C110.143 21.0179 109.927 20.2853 109.496 19.7969C109.065 19.3085 108.346 19.0656 107.339 19.0656C106.951 19.0656 106.593 19.1243 106.273 19.2431C105.953 19.3605 105.663 19.518 105.406 19.7142C105.146 19.909 104.927 20.1319 104.747 20.3827C104.564 20.6336 104.426 20.9005 104.328 21.1781C104.202 21.5277 104.126 21.8613 104.098 22.1829C104.07 22.5032 104.057 22.8515 104.057 23.2291V29.0674L102.797 29.0688Z" fill="#231815"/>
<path d="M114.977 15.8629V14H116.358V15.8629H114.977ZM115.039 29.0688V18.2276H116.295V29.0688H115.039Z" fill="#231815"/>
<path d="M121.295 33.3377H120.039V18.2276H121.295V20.1319H121.338C121.519 19.7836 121.751 19.47 122.037 19.1898C122.324 18.9122 122.637 18.68 122.978 18.4985C123.322 18.317 123.673 18.1782 124.036 18.0795C124.397 17.9821 124.754 17.934 125.103 17.934C125.983 17.934 126.729 18.0795 127.344 18.3731C127.956 18.6666 128.462 19.0683 128.861 19.5754C129.259 20.0852 129.547 20.6884 129.729 21.3863C129.91 22.0842 129.999 22.8302 129.999 23.6255C129.999 24.3781 129.903 25.1041 129.707 25.802C129.512 26.4999 129.216 27.1098 128.819 27.6329C128.42 28.1573 127.918 28.575 127.312 28.8886C126.705 29.2022 125.988 29.3597 125.167 29.3597C124.399 29.3597 123.663 29.1889 122.958 28.8473C122.254 28.5056 121.7 27.9985 121.295 27.33V33.3377ZM121.295 23.6896C121.295 24.3034 121.379 24.8852 121.546 25.4377C121.712 25.9902 121.954 26.4706 122.268 26.8829C122.581 27.2953 122.964 27.6222 123.418 27.8664C123.872 28.1106 124.385 28.2321 124.957 28.2321C125.597 28.2321 126.159 28.104 126.642 27.8451C127.121 27.5862 127.516 27.2339 127.823 26.7882C128.13 26.3425 128.353 25.8234 128.493 25.2309C128.633 24.6384 128.688 23.9992 128.662 23.3146C128.662 22.6313 128.566 22.0282 128.378 21.5037C128.19 20.9819 127.93 20.5376 127.593 20.1759C127.259 19.8129 126.869 19.5367 126.42 19.3486C125.975 19.1591 125.488 19.067 124.957 19.067C124.371 19.067 123.846 19.1857 123.386 19.4219C122.924 19.6595 122.541 19.9838 122.234 20.3948C121.929 20.8071 121.695 21.2955 121.535 21.86C121.376 22.4245 121.295 23.0343 121.295 23.6896Z" fill="#231815"/>
<line x1="150.5" y1="16" x2="150.5" y2="31" stroke="#231815"/>
</svg>
