<svg width="735" height="170" viewBox="0 0 735 170" fill="none" xmlns="http://www.w3.org/2000/svg">
<path d="M666.38 142.965C666.38 142.428 666.38 141.815 666.38 141.125C666.38 140.358 666.418 139.285 666.495 137.905C666.648 136.448 666.84 134.57 667.07 132.27C667.376 129.893 667.76 126.865 668.22 123.185L674.775 70.2851L663.62 70.2851C662.24 70.2851 661.09 69.7868 660.17 68.7901C659.327 67.7935 659.058 66.2985 659.365 64.3051L660.63 53.0351L678.57 49.9302L688 17.7301C688.536 16.1968 689.342 15.0085 690.415 14.1651C691.488 13.3218 692.83 12.9002 694.44 12.9002L709.62 12.9002L705.02 50.0451L733.54 50.0452L731.125 70.2852L702.49 70.2852L696.165 121.69C695.781 124.833 695.475 127.325 695.245 129.165C695.015 131.005 694.823 132.462 694.67 133.535C694.593 134.532 694.555 135.26 694.555 135.72C694.555 136.103 694.555 136.372 694.555 136.525C694.555 139.438 695.245 141.738 696.625 143.425C698.081 145.112 700.113 145.955 702.72 145.955C704.33 145.955 705.71 145.763 706.86 145.38C708.01 144.92 709.006 144.46 709.85 144C710.693 143.54 711.46 143.118 712.15 142.735C712.84 142.275 713.491 142.045 714.105 142.045C714.948 142.045 715.6 142.275 716.06 142.735C716.52 143.118 716.941 143.732 717.325 144.575L723.42 158.375C719.203 161.825 714.526 164.432 709.39 166.195C704.33 167.959 699.155 168.84 693.865 168.84C685.508 168.84 678.876 166.578 673.97 162.055C669.14 157.532 666.61 151.168 666.38 142.965Z" stroke="#FFAE00"/>
<path d="M570.885 73.3902C576.865 64.5735 583.497 58.0185 590.78 53.7252C598.063 49.3552 605.577 47.1702 613.32 47.1702C618.227 47.1702 622.635 48.1669 626.545 50.1602C630.455 52.1535 633.675 55.0669 636.205 58.9002C638.735 62.6569 640.498 67.3335 641.495 72.9302C642.568 78.4502 642.645 84.7752 641.725 91.9052L632.87 167L604.465 167L613.32 91.9052C614.317 84.2385 613.933 78.7569 612.17 75.4602C610.407 72.0868 607.187 70.4002 602.51 70.4002C599.367 70.4002 596.147 71.3202 592.85 73.1602C589.553 74.9235 586.372 77.4918 583.305 80.8652C580.238 84.1618 577.402 88.1485 574.795 92.8252C572.265 97.4252 570.195 102.6 568.585 108.35L562.03 167L533.625 167L547.77 48.8952L562.145 48.8952C565.135 48.8952 567.435 49.6235 569.045 51.0802C570.732 52.5369 571.575 54.8752 571.575 58.0952L570.885 73.3902Z" stroke="#FFAE00"/>
<path d="M491.994 67.6402C490.92 67.5635 489.885 67.5252 488.889 67.5252C487.969 67.4485 487.049 67.4102 486.129 67.4102C479.765 67.4102 473.862 68.8668 468.419 71.7802C462.975 74.6935 458.26 78.6418 454.274 83.6252C450.364 88.5318 447.259 94.2818 444.959 100.875C442.735 107.392 441.624 114.292 441.624 121.575C441.624 129.855 442.927 135.912 445.534 139.745C448.14 143.578 451.705 145.495 456.229 145.495C459.372 145.495 462.439 144.422 465.429 142.275C468.495 140.052 471.37 137.062 474.054 133.305C476.814 129.472 479.305 124.987 481.529 119.85C483.829 114.713 485.822 109.193 487.509 103.29L491.994 67.6402ZM484.174 142.39C478.96 150.44 473.057 156.842 466.464 161.595C459.947 166.349 452.817 168.725 445.074 168.725C440.627 168.725 436.449 167.843 432.539 166.08C428.705 164.317 425.332 161.71 422.419 158.26C419.582 154.733 417.32 150.363 415.634 145.15C414.024 139.86 413.219 133.688 413.219 126.635C413.219 119.582 414.1 112.72 415.864 106.05C417.627 99.3802 420.119 93.1318 423.339 87.3052C426.635 81.4018 430.584 75.9968 435.184 71.0902C439.784 66.1835 444.92 61.9668 450.594 58.4402C456.344 54.9135 462.515 52.1918 469.109 50.2752C475.779 48.2818 482.794 47.2852 490.154 47.2852C495.444 47.2852 500.734 47.6685 506.024 48.4352C511.39 49.2018 516.604 50.5818 521.664 52.5752L507.519 167L492.454 167C488.85 167 486.397 166.119 485.094 164.355C483.867 162.515 483.254 160.254 483.254 157.57L484.174 142.39Z" stroke="#FFAE00"/>
<path d="M399.244 71.2052C398.401 72.4319 397.596 73.3135 396.829 73.8502C396.062 74.3102 395.066 74.5402 393.839 74.5402C392.459 74.5402 391.079 74.1569 389.699 73.3902C388.319 72.6235 386.709 71.7802 384.869 70.8602C383.106 69.8635 381.036 68.9818 378.659 68.2152C376.359 67.4485 373.599 67.0652 370.379 67.0652C364.322 67.0652 359.684 68.4452 356.464 71.2052C353.244 73.8885 351.634 77.2618 351.634 81.3252C351.634 84.4685 352.746 86.9985 354.969 88.9152C357.269 90.8318 360.144 92.5185 363.594 93.9752C367.044 95.4318 370.724 96.9268 374.634 98.4602C378.621 99.9168 382.339 101.795 385.789 104.095C389.239 106.319 392.076 109.232 394.299 112.835C396.599 116.362 397.749 120.924 397.749 126.52C397.749 132.194 396.599 137.599 394.299 142.735C392.076 147.872 388.856 152.395 384.639 156.305C380.422 160.139 375.324 163.205 369.344 165.505C363.441 167.729 356.771 168.84 349.334 168.84C345.654 168.84 342.051 168.457 338.524 167.69C334.997 167 331.701 166.004 328.634 164.7C325.644 163.397 322.884 161.864 320.354 160.1C317.824 158.337 315.677 156.42 313.914 154.35L320.929 143.54C321.772 142.237 322.769 141.24 323.919 140.55C325.069 139.86 326.487 139.515 328.174 139.515C329.784 139.515 331.241 140.014 332.544 141.01C333.847 142.007 335.342 143.119 337.029 144.345C338.792 145.495 340.901 146.569 343.354 147.565C345.884 148.562 349.104 149.06 353.014 149.06C356.157 149.06 358.917 148.639 361.294 147.795C363.747 146.952 365.817 145.802 367.504 144.345C369.191 142.889 370.456 141.202 371.299 139.285C372.142 137.369 372.564 135.337 372.564 133.19C372.564 130.584 371.912 128.437 370.609 126.75C369.306 124.987 367.542 123.492 365.319 122.265C363.172 120.962 360.719 119.85 357.959 118.93C355.199 117.934 352.362 116.899 349.449 115.825C346.612 114.752 343.814 113.525 341.054 112.145C338.371 110.765 335.917 109.04 333.694 106.97C331.547 104.824 329.822 102.255 328.519 99.2652C327.216 96.1985 326.564 92.4802 326.564 88.1102C326.564 82.8968 327.561 77.8368 329.554 72.9302C331.547 67.9468 334.461 63.5768 338.294 59.8202C342.127 55.9868 346.842 52.9202 352.439 50.6202C358.112 48.3202 364.591 47.1702 371.874 47.1702C379.387 47.1702 386.057 48.4735 391.884 51.0802C397.711 53.6102 402.579 56.8685 406.489 60.8552L399.244 71.2052Z" stroke="#FFAE00"/>
<path d="M277.094 77.3C280.084 71.4733 283.265 66.49 286.639 62.35C290.089 58.1333 293.654 54.875 297.334 52.575C301.014 50.1983 304.809 48.8183 308.719 48.435C312.629 47.975 316.539 48.5883 320.449 50.275L315.274 77.415C305.92 73.505 297.717 74.4633 290.664 80.29C283.687 86.1166 278.09 97.5783 273.874 114.675L267.549 167L239.719 167L253.979 48.895L268.469 48.895C271.459 48.895 273.759 49.6233 275.369 51.08C277.055 52.5366 277.899 54.875 277.899 58.095L277.094 77.3Z" stroke="#FFAE00"/>
<path d="M189.164 67.1799C185.331 67.1799 181.766 67.9849 178.469 69.5949C175.173 71.1282 172.183 73.3132 169.499 76.1499C166.893 78.9866 164.593 82.3982 162.599 86.3849C160.683 90.2949 159.149 94.5882 157.999 99.2649C167.506 97.9616 175.134 96.5432 180.884 95.0099C186.711 93.3999 191.196 91.7132 194.339 89.9499C197.483 88.1099 199.553 86.1549 200.549 84.0849C201.623 81.9382 202.159 79.7149 202.159 77.4149C202.159 76.2649 201.891 75.0766 201.354 73.8499C200.894 72.6232 200.128 71.5499 199.054 70.6299C198.058 69.6332 196.716 68.8283 195.029 68.2149C193.419 67.5249 191.464 67.1799 189.164 67.1799ZM155.584 118.93C155.584 137.483 163.443 146.76 179.159 146.76C182.533 146.76 185.523 146.453 188.129 145.84C190.736 145.15 192.998 144.345 194.914 143.425C196.908 142.505 198.671 141.47 200.204 140.32C201.814 139.17 203.271 138.135 204.574 137.215C205.954 136.295 207.296 135.528 208.599 134.915C209.903 134.225 211.321 133.88 212.854 133.88C213.774 133.88 214.656 134.11 215.499 134.57C216.419 135.03 217.224 135.643 217.914 136.41L225.159 145.15C221.096 149.213 217.109 152.74 213.199 155.73C209.289 158.72 205.303 161.173 201.239 163.09C197.176 165.007 192.883 166.425 188.359 167.345C183.836 168.265 178.929 168.725 173.639 168.725C166.739 168.725 160.491 167.575 154.894 165.275C149.298 162.898 144.506 159.602 140.519 155.385C136.533 151.092 133.428 145.955 131.204 139.975C129.058 133.918 127.984 127.172 127.984 119.735C127.984 113.525 128.636 107.43 129.939 101.45C131.319 95.4699 133.274 89.7966 135.804 84.4299C138.334 79.0632 141.439 74.1182 145.119 69.5949C148.799 65.0716 152.939 61.1616 157.539 57.8649C162.216 54.5682 167.314 51.9999 172.834 50.1599C178.431 48.3199 184.411 47.3999 190.774 47.3999C196.908 47.3999 202.274 48.2816 206.874 50.0449C211.551 51.8083 215.423 54.1083 218.489 56.9449C221.633 59.7049 223.971 62.8099 225.504 66.2599C227.038 69.7099 227.804 73.0833 227.804 76.3799C227.804 81.6699 226.731 86.4999 224.584 90.8699C222.514 95.2399 218.758 99.1499 213.314 102.6C207.948 106.05 200.588 109.04 191.234 111.57C181.881 114.023 169.998 115.978 155.584 117.435L155.584 118.93Z" stroke="#FFAE00"/>
<path d="M152.213 0.709987L69.9875 167L42.9625 167L1.5625 0.709961L25.5975 0.709965C28.2042 0.709966 30.2358 1.36164 31.6925 2.66498C33.2258 3.89164 34.1842 5.50164 34.5675 7.49497L56.8775 111.11C57.7208 114.33 58.4875 117.857 59.1775 121.69C59.8675 125.447 60.4808 129.395 61.0175 133.535C62.3208 129.395 63.7392 125.447 65.2725 121.69C66.8058 117.857 68.3775 114.33 69.9875 111.11L117.368 7.49498C118.134 5.80832 119.476 4.27499 121.392 2.89499C123.386 1.43832 125.609 0.709983 128.063 0.709983L152.213 0.709987Z" stroke="#FFAE00"/>
</svg>
